<?xml version="1.0" standalone="no"?>
<!DOCTYPE svg PUBLIC "-//W3C//DTD SVG 20010904//EN"
 "http://www.w3.org/TR/2001/REC-SVG-20010904/DTD/svg10.dtd">
<svg version="1.0" xmlns="http://www.w3.org/2000/svg"
 width="700.000000pt" height="700.000000pt" viewBox="0 0 700.000000 700.000000"
 preserveAspectRatio="xMidYMid meet">
<metadata>
Created by potrace 1.11, written by Peter Selinger 2001-2013
</metadata>
<g transform="translate(0.000000,700.000000) scale(0.100000,-0.100000)"
fill="#000000" stroke="none">
<path d="M159 5968 c-4 -9 -8 -70 -14 -218 -3 -91 -8 -194 -10 -230 -2 -36 -6
-139 -10 -230 -3 -91 -8 -194 -10 -230 -2 -36 -7 -139 -11 -230 -4 -91 -8
-192 -9 -225 -3 -73 -7 -205 -6 -223 1 -10 24 -12 104 -8 56 3 170 8 252 11
83 3 193 8 245 10 146 7 533 17 745 19 l190 1 -1 -460 c-1 -428 -11 -1226 -19
-1515 -2 -69 -6 -228 -9 -355 -4 -126 -8 -275 -11 -330 -2 -55 -7 -158 -10
-230 -13 -324 -16 -379 -20 -385 -2 -3 0 -12 5 -20 7 -12 143 -14 904 -15 932
0 901 -1 898 35 -1 9 -12 301 -17 425 -3 66 -7 165 -10 220 -2 55 -7 206 -10
335 -4 129 -8 294 -10 365 -6 216 -16 1062 -18 1520 l-2 430 625 0 c344 0 651
-3 682 -7 271 -33 467 -163 527 -351 49 -154 44 -293 -15 -421 -74 -159 -241
-290 -475 -370 -76 -26 -240 -64 -314 -72 -22 -3 -56 -6 -75 -9 -19 -2 -52 -4
-72 -4 -21 -1 -38 -5 -38 -11 0 -9 73 -189 90 -221 12 -23 330 -798 360 -879
5 -14 15 -38 21 -55 7 -16 13 -34 15 -40 1 -5 28 -75 59 -155 63 -160 138
-369 192 -530 19 -58 42 -124 50 -148 l16 -42 954 0 c760 0 954 3 950 13 -2 6
-104 176 -226 376 -122 199 -288 474 -368 610 -81 135 -174 293 -209 351 -45
76 -59 108 -52 118 6 6 14 12 18 12 18 0 188 105 264 162 197 148 364 351 469
568 35 72 100 255 111 313 4 15 8 39 11 55 3 15 8 34 10 42 19 66 27 404 13
525 -86 734 -519 1265 -1248 1530 -177 65 -495 134 -685 150 -44 4 -91 9 -105
13 -24 6 -4689 16 -4691 10z"/>
</g>
</svg>
