<?xml version="1.0" standalone="no"?>
<!DOCTYPE svg PUBLIC "-//W3C//DTD SVG 20010904//EN"
 "http://www.w3.org/TR/2001/REC-SVG-20010904/DTD/svg10.dtd">
<svg version="1.0" xmlns="http://www.w3.org/2000/svg"
 width="700.000000pt" height="700.000000pt" viewBox="0 0 700.000000 700.000000"
 preserveAspectRatio="xMidYMid meet">
<metadata>
Created by potrace 1.11, written by Peter Selinger 2001-2013
</metadata>
<g transform="translate(0.000000,700.000000) scale(0.100000,-0.100000)"
fill="#000000" stroke="none">
<path d="M755 5448 c-2 -7 -6 -92 -10 -188 -3 -96 -8 -213 -10 -260 -2 -47 -7
-148 -10 -225 -3 -77 -8 -185 -10 -240 -2 -55 -7 -160 -10 -232 l-6 -133 68 4
c37 3 154 8 258 11 105 4 224 9 265 10 41 2 204 7 363 10 276 7 287 7 288 -11
8 -291 -15 -1765 -35 -2204 -2 -47 -7 -167 -11 -267 l-7 -183 727 0 727 0 -7
193 c-4 105 -9 226 -11 267 -3 77 -12 332 -19 595 -3 83 -7 484 -11 893 l-7
742 529 -3 c563 -4 580 -6 717 -57 68 -25 146 -85 187 -142 58 -79 84 -218 65
-338 -12 -75 -54 -150 -124 -221 -109 -109 -235 -168 -456 -215 -41 -8 -191
-27 -222 -27 -17 0 -16 -10 6 -60 10 -23 42 -98 71 -167 28 -69 58 -138 65
-155 7 -16 28 -66 45 -110 17 -44 38 -93 45 -110 23 -50 156 -387 172 -435 8
-25 21 -58 28 -75 27 -63 55 -141 177 -498 l23 -67 774 0 773 0 -14 23 c-14
21 -87 140 -315 517 -55 91 -163 271 -240 401 l-140 237 82 46 c341 189 582
526 639 891 2 17 8 50 12 75 6 44 7 281 0 330 -22 160 -19 147 -41 236 -80
318 -261 587 -526 780 -117 86 -131 94 -254 154 -89 44 -245 106 -285 115 -8
2 -52 13 -97 24 -93 24 -211 47 -293 56 -30 4 -73 10 -95 13 -22 3 -894 7
-1938 9 -1537 3 -1898 1 -1902 -9z"/>
</g>
</svg>
