<svg version="1" xmlns="http://www.w3.org/2000/svg" width="933.333" height="933.333" viewBox="0 0 700.000000 700.000000">
  <path d="M15.9 103.2c-.4.9-.8 7-1.4 21.8l-1 23-1 23-1 23a2716.4 2716.4 0 0 0-2.6 67.8c.1 1 2.4 1.2 10.4.8l25.2-1.1 24.5-1a2759 2759 0 0 1 74.5-1.9l19-.1-.1 46a8711.3 8711.3 0 0 1-2.8 187c-.4 12.6-.8 27.5-1.1 33l-1 23a407.5 407.5 0 0 1-2 38.5c-.2.3 0 1.2.5 2 .7 1.2 14.3 1.4 90.4 1.5 93.2 0 90.1.1 89.8-3.5l-1.7-42.5-1-22-1-33.5-1-36.5c-.6-21.6-1.6-106.2-1.8-152l-.2-43H392c34.4 0 65.1.3 68.2.7 27.1 3.3 46.7 16.3 52.7 35.1a56.3 56.3 0 0 1-1.5 42.1c-7.4 15.9-24.1 29-47.5 37-7.6 2.6-24 6.4-31.4 7.2l-7.5.9c-1.9.2-5.2.4-7.2.4-2.1.1-3.8.5-3.8 1.1 0 .9 7.3 18.9 9 22.1 1.2 2.3 33 79.8 36 87.9l2.1 5.5a1203.5 1203.5 0 0 1 26.6 72.5l5 14.8 1.6 4.2h95.4c76 0 95.4-.3 95-1.3-.2-.6-10.4-17.6-22.6-37.6a4916.2 4916.2 0 0 1-36.8-61L604.4 453c-4.5-7.6-5.9-10.8-5.2-11.8.6-.6 1.4-1.2 1.8-1.2a159.6 159.6 0 0 0 73.3-73c3.5-7.2 10-25.5 11.1-31.3l1.1-5.5 1-4.2c1.9-6.6 2.7-40.4 1.3-52.5-8.6-73.4-51.9-126.5-124.8-153a324.6 324.6 0 0 0-68.5-15c-4.4-.4-9.1-.9-10.5-1.3-2.4-.6-468.9-1.6-469.1-1z"/>
</svg>
