<?xml version="1.0" encoding="UTF-8"?><!DOCTYPE svg PUBLIC "-//W3C//DTD SVG 1.1//EN" "http://www.w3.org/Graphics/SVG/1.1/DTD/svg11.dtd"><svg xmlns="http://www.w3.org/2000/svg"><symbol id="sprite_align-center" viewBox="0 0 24 24"><path d="M7 15v2h10v-2H7zm-4 6h18v-2H3v2zm0-8h18v-2H3v2zm4-6v2h10V7H7zM3 3v2h18V3H3z"/></symbol><symbol id="sprite_align-left" viewBox="0 0 24 24"><path d="M15 15H3v2h12v-2zm0-8H3v2h12V7zM3 13h18v-2H3v2zm0 8h18v-2H3v2zM3 3v2h18V3H3z"/></symbol><symbol id="sprite_align-right" viewBox="0 0 24 24"><path d="M3 21h18v-2H3v2zm6-4h12v-2H9v2zm-6-4h18v-2H3v2zm6-4h12V7H9v2zM3 3v2h18V3H3z"/></symbol><symbol id="sprite_lines" viewBox="0 0 24 24"><path d="M20 9H4v2h16V9zM4 15h16v-2H4v2z"/></symbol><symbol id="sprite_link" viewBox="0 0 24 24"><path d="M3.9 12c0-1.7 1.4-3.1 3.1-3.1h4V7H7a5 5 0 0 0 0 10h4v-1.9H7A3.1 3.1 0 0 1 3.9 12zM8 13h8v-2H8v2zm9-6h-4v1.9h4a3.1 3.1 0 0 1 0 6.2h-4V17h4a5 5 0 0 0 0-10z"/></symbol><symbol id="sprite_refresh" viewBox="0 0 24 24"><path d="M17.6 6.3A8 8 0 0 0 12 4a8 8 0 1 0 7.7 10h-2a6 6 0 0 1-5.7 4 6 6 0 0 1 0-12 6 6 0 0 1 4.2 1.8L13 11h7V4l-2.4 2.4z"/></symbol></svg>