<?xml version="1.0" encoding="UTF-8"?><!DOCTYPE svg PUBLIC "-//W3C//DTD SVG 1.1//EN" "http://www.w3.org/Graphics/SVG/1.1/DTD/svg11.dtd"><svg xmlns="http://www.w3.org/2000/svg"><symbol id="sprite_align-center" viewBox="0 0 24 24"><path d="M7 15v2h10v-2H7zm-4 6h18v-2H3v2zm0-8h18v-2H3v2zm4-6v2h10V7H7zM3 3v2h18V3H3z"/></symbol><symbol id="sprite_align-left" viewBox="0 0 24 24"><path d="M15 15H3v2h12v-2zm0-8H3v2h12V7zM3 13h18v-2H3v2zm0 8h18v-2H3v2zM3 3v2h18V3H3z"/></symbol><symbol id="sprite_align-right" viewBox="0 0 24 24"><path d="M3 21h18v-2H3v2zm6-4h12v-2H9v2zm-6-4h18v-2H3v2zm6-4h12V7H9v2zM3 3v2h18V3H3z"/></symbol><symbol id="sprite_refresh" viewBox="0 0 24 24"><path d="M17.6 6.3A8 8 0 0 0 12 4a8 8 0 1 0 7.7 10h-2a6 6 0 0 1-5.7 4 6 6 0 0 1 0-12 6 6 0 0 1 4.2 1.8L13 11h7V4l-2.4 2.4z"/></symbol><symbol id="sprite_x-lines" viewBox="0 0 1 4"><path d="M0 0h1M0 1h1M0 2h1M0 3h1M0 4h1" vector-effect="non-scaling-stroke"/></symbol></svg>